<svg width="158" height="158" viewBox="0 0 158 158" fill="none" xmlns="http://www.w3.org/2000/svg">
<rect width="158" height="158" fill="#F5F5F5"/>
<g id="Welcome page" clip-path="url(#clip0_0_1)">
<rect width="1512" height="982" transform="translate(-180 -128)" fill="white"/>
<g id="workflow">
<g id="BgImg">
<g id="Menu">
<path id="&#208;&#159;&#209;&#128;&#209;&#143;&#208;&#188;&#208;&#190;&#209;&#131;&#208;&#179;&#208;&#190;&#208;&#187;&#209;&#140;&#208;&#189;&#208;&#184;&#208;&#186; 2" d="M45.6574 -63.5563H-180V854H45.6574V-63.5563Z" fill="#EEF2F4"/>
<path id="&#208;&#159;&#209;&#128;&#209;&#143;&#208;&#188;&#208;&#190;&#209;&#131;&#208;&#179;&#208;&#190;&#208;&#187;&#209;&#140;&#208;&#189;&#208;&#184;&#208;&#186; 6" opacity="0.1" d="M16.141 18.2771H-150.484C-155.742 18.2771 -160.005 22.8569 -160.005 28.5063C-160.005 34.1557 -155.742 38.7354 -150.484 38.7354H16.141C21.3996 38.7354 25.6624 34.1557 25.6624 28.5063C25.6624 22.8569 21.3996 18.2771 16.141 18.2771Z" fill="#535C69"/>
<path id="&#208;&#159;&#209;&#128;&#209;&#143;&#208;&#188;&#208;&#190;&#209;&#131;&#208;&#179;&#208;&#190;&#208;&#187;&#209;&#140;&#208;&#189;&#208;&#184;&#208;&#186; 7" opacity="0.1" d="M16.141 69.4229H-150.484C-155.742 69.4229 -160.005 74.0026 -160.005 79.652C-160.005 85.3014 -155.742 89.8812 -150.484 89.8812H16.141C21.3996 89.8812 25.6624 85.3014 25.6624 79.652C25.6624 74.0026 21.3996 69.4229 16.141 69.4229Z" fill="#535C69"/>
<path id="&#208;&#159;&#209;&#128;&#209;&#143;&#208;&#188;&#208;&#190;&#209;&#131;&#208;&#179;&#208;&#190;&#208;&#187;&#209;&#140;&#208;&#189;&#208;&#184;&#208;&#186; 8" opacity="0.1" d="M16.141 120.569H-150.484C-155.742 120.569 -160.005 125.148 -160.005 130.798C-160.005 136.447 -155.742 141.027 -150.484 141.027H16.141C21.3996 141.027 25.6624 136.447 25.6624 130.798C25.6624 125.148 21.3996 120.569 16.141 120.569Z" fill="#535C69"/>
<path id="&#208;&#159;&#209;&#128;&#209;&#143;&#208;&#188;&#208;&#190;&#209;&#131;&#208;&#179;&#208;&#190;&#208;&#187;&#209;&#140;&#208;&#189;&#208;&#184;&#208;&#186; 9" opacity="0.1" d="M16.141 143.073H-150.484C-155.742 143.073 -160.005 147.653 -160.005 153.302C-160.005 158.951 -155.742 163.531 -150.484 163.531H16.141C21.3996 163.531 25.6624 158.951 25.6624 153.302C25.6624 147.653 21.3996 143.073 16.141 143.073Z" fill="#535C69"/>
</g>
</g>
<path id="Blur" d="M1332 -128H-180V854H1332V-128Z" fill="black" fill-opacity="0.4"/>
<path id="WorkFlow" d="M1332 -128H-118V854H1332V-128Z" fill="white"/>
</g>
<path id="Backgroundlines" d="M-118 -128L-118 858M684 -128V858M283 -128L283 858M1085 -128V858M83 -128L83 858M885 -128L885 858M484 -128L484 858M1286 -128V858M-18 -128L-18 858M784 -128V858M383 -128L383 858M1185 -128V858M183 -128L183 858M985 -128V858M584 -128L584 858" stroke="#F0F0F0"/>
<g id="Frame 2">
<g id="Frame 1">
<g id="Logo" clip-path="url(#clip1_0_1)">
<g id="Clip path group">
<mask id="mask0_0_1" style="mask-type:luminance" maskUnits="userSpaceOnUse" x="0" y="0" width="158" height="158">
<g id="clippath">
<path id="Vector" d="M0.922668 78.7584C0.922668 21.3098 22.0128 0.219727 79.4613 0.219727C136.91 0.219727 158 21.2879 158 78.7584C158 136.229 136.932 157.297 79.4613 157.297C21.9908 157.297 0.922668 136.229 0.922668 78.7584Z" fill="white"/>
</g>
</mask>
<g mask="url(#mask0_0_1)">
<g id="Group">
<path id="Vector_2" d="M158 0H0V158H158V0Z" fill="#6CFF7D"/>
<g id="Group_2">
<path id="Vector_3" d="M78.0114 39.5439H38.5554V79H78.0114V39.5439Z" fill="black"/>
<path id="Vector_4" d="M117.467 79H78.0114V118.456H117.467V79Z" fill="black"/>
</g>
</g>
</g>
</g>
</g>
</g>
</g>
</g>
<defs>
<clipPath id="clip0_0_1">
<rect width="1512" height="982" fill="white" transform="translate(-180 -128)"/>
</clipPath>
<clipPath id="clip1_0_1">
<rect width="158" height="158" fill="white"/>
</clipPath>
</defs>
</svg>
