<svg id="PhoneIcon" xmlns="http://www.w3.org/2000/svg" width="32" height="32" viewBox="0 0 32 32">
  <rect id="Field" width="32" height="32" fill="#fff" opacity="0"/>
  <path id="Icon" d="M27.393,31.133h-.041a9.169,9.169,0,0,1-3.609-.806,18.292,18.292,0,0,1-3.568-2.055,29.381,29.381,0,0,1-3.337-2.849,29.071,29.071,0,0,1-2.847-3.337,18.524,18.524,0,0,1-2.037-3.544,9.229,9.229,0,0,1-.792-3.6,6.065,6.065,0,0,1,.424-2.281,5.572,5.572,0,0,1,1.355-1.985,3.905,3.905,0,0,1,2.729-1.215h.014a2.879,2.879,0,0,1,1.234.272,2.59,2.59,0,0,1,1.056.887l2.274,3.206a4.319,4.319,0,0,1,.5.877,2.512,2.512,0,0,1,.217.964,2.365,2.365,0,0,1-.36,1.259,4.258,4.258,0,0,1-.7.883l-.523.545a7.116,7.116,0,0,0,.694.927c.489.565.941,1.058,1.391,1.516.584.573,1.05,1,1.5,1.385a6.66,6.66,0,0,0,.953.7l.54-.534a3.984,3.984,0,0,1,.9-.7,2.308,2.308,0,0,1,1.205-.347,2.587,2.587,0,0,1,1,.209,4.773,4.773,0,0,1,.868.485l3.26,2.314a2.449,2.449,0,0,1,.872,1.029,3.037,3.037,0,0,1,.248,1.177v.009a3.527,3.527,0,0,1-.344,1.5,5.049,5.049,0,0,1-.83,1.244,5.438,5.438,0,0,1-1.966,1.41,5.913,5.913,0,0,1-2.271.452M15.7,11.461h0a1.884,1.884,0,0,0-1.316.6l-.056.056a3.55,3.55,0,0,0-.881,1.28,4.056,4.056,0,0,0-.283,1.52,7.232,7.232,0,0,0,.622,2.818,16.57,16.57,0,0,0,1.82,3.168,27.049,27.049,0,0,0,2.647,3.1,27.291,27.291,0,0,0,3.107,2.652A16.342,16.342,0,0,0,24.55,28.5a7.176,7.176,0,0,0,2.828.635,3.764,3.764,0,0,0,1.517-.3,3.453,3.453,0,0,0,1.244-.9,3.082,3.082,0,0,0,.514-.768,1.517,1.517,0,0,0,.151-.646,1.015,1.015,0,0,0-.079-.381.48.48,0,0,0-.166-.18l-3.288-2.333a2.8,2.8,0,0,0-.5-.279.571.571,0,0,0-.222-.048.3.3,0,0,0-.145.049l-.048.029a2.032,2.032,0,0,0-.475.369l-.769.76a1.462,1.462,0,0,1-1.128.455,1.532,1.532,0,0,1-.562-.1l-.333-.15a8.587,8.587,0,0,1-1.437-1.024c-.472-.4-.97-.861-1.6-1.483-.492-.5-.972-1.025-1.482-1.613a9.212,9.212,0,0,1-1.02-1.406L17.46,19c-.029-.069-.049-.114-.068-.166l-.03-.094a1.891,1.891,0,0,1-.062-.481,1.509,1.509,0,0,1,.456-1.108l.728-.757a2.444,2.444,0,0,0,.411-.515.374.374,0,0,0,.067-.2.571.571,0,0,0-.049-.176A2.475,2.475,0,0,0,18.627,15l-2.294-3.233a.619.619,0,0,0-.256-.219.871.871,0,0,0-.376-.088m8,11.628-.019.019Zm-4.512-4.542-.014.014.014-.014" transform="translate(-5.581 -4.73)"/>
</svg>
