<?xml version="1.0" encoding="UTF-8"?><svg id="a" xmlns="http://www.w3.org/2000/svg" viewBox="0 0 64 64"><defs><style>.b{fill:#fff;fill-rule:evenodd;}</style></defs><path class="b" d="M31.9,32.79c-2.99-.01-5.84-1.21-7.96-3.33-2.11-2.12-3.3-4.99-3.31-7.99,0-3.01,1.19-5.9,3.3-8.05,2.11-2.15,4.97-3.37,7.97-3.42,1.49,0,2.97,.29,4.35,.87,1.38,.58,2.63,1.43,3.68,2.49,1.05,1.07,1.88,2.33,2.43,3.73,.56,1.39,.83,2.88,.81,4.38,.02,1.49-.26,2.97-.82,4.35-.56,1.38-1.39,2.64-2.44,3.69-1.05,1.05-2.3,1.89-3.68,2.45-1.38,.56-2.85,.84-4.33,.82h0Zm0-16.03c-.63,0-1.25,.13-1.83,.37s-1.1,.61-1.54,1.06c-.44,.45-.78,.99-1.01,1.58-.23,.59-.33,1.22-.31,1.85,0,.61,.11,1.22,.34,1.79,.23,.57,.58,1.08,1.02,1.51,.44,.43,.96,.76,1.54,.98,.57,.22,1.18,.31,1.8,.28,.61,.01,1.21-.09,1.78-.31,.57-.22,1.08-.55,1.52-.98,.44-.42,.79-.93,1.03-1.49,.24-.56,.37-1.16,.37-1.77,.02-.63-.08-1.26-.31-1.85-.23-.59-.57-1.13-1.01-1.58-.44-.45-.96-.82-1.54-1.06-.58-.25-1.2-.37-1.83-.37h0Zm4.54,25.46l6.42,6.29c.3,.3,.53,.65,.7,1.05,.16,.39,.24,.81,.24,1.23s-.08,.84-.24,1.23c-.16,.39-.4,.75-.7,1.05-.28,.33-.62,.6-1.02,.79-.39,.18-.82,.28-1.25,.28s-.86-.1-1.25-.28c-.39-.18-.74-.45-1.02-.79l-6.42-6.29-6.26,6.29c-.3,.31-.67,.56-1.07,.72-.4,.16-.84,.24-1.27,.22-.87-.03-1.7-.37-2.35-.94-.3-.3-.53-.65-.7-1.05-.16-.39-.24-.81-.24-1.23s.08-.84,.24-1.23,.4-.75,.7-1.05l6.57-6.29c-2.35-.74-4.61-1.74-6.73-2.99-.73-.48-1.24-1.21-1.45-2.06-.2-.85-.08-1.74,.35-2.5,.24-.38,.55-.71,.92-.96,.37-.26,.79-.43,1.22-.52,.44-.09,.89-.09,1.33,0,.44,.09,.85,.27,1.22,.53,2.29,1.39,4.92,2.12,7.59,2.12s5.3-.73,7.59-2.12c.37-.26,.78-.44,1.22-.53,.44-.09,.89-.1,1.33,0,.44,.09,.86,.27,1.22,.52,.37,.26,.68,.58,.92,.96,.44,.74,.59,1.62,.42,2.46-.17,.84-.66,1.59-1.36,2.09-2.18,1.25-4.49,2.25-6.89,2.99h0Z"/></svg>