<?xml version="1.0" encoding="UTF-8"?><svg id="a" xmlns="http://www.w3.org/2000/svg" viewBox="0 0 64 64"><defs><style>.b{fill:#fff;}</style></defs><path class="b" d="M32.02,9.98c-12.15,0-22,9.85-22,22,0,9.33,5.8,17.3,13.98,20.5-.2-1.74-.36-4.42,.07-6.32,.4-1.72,2.57-10.94,2.57-10.94,0,0-.65-1.32-.65-3.26,0-3.06,1.77-5.34,3.98-5.34,1.88,0,2.79,1.41,2.79,3.1,0,1.88-1.2,4.71-1.83,7.33-.53,2.19,1.1,3.98,3.26,3.98,3.91,0,6.92-4.13,6.92-10.07,0-5.27-3.79-8.95-9.2-8.95-6.27,0-9.94,4.69-9.94,9.54,0,1.88,.72,3.91,1.63,5.02,.18,.22,.2,.42,.14,.63-.16,.69-.54,2.19-.62,2.5-.09,.4-.33,.49-.74,.29-2.75-1.29-4.47-5.29-4.47-8.53,0-6.94,5.03-13.31,14.54-13.31,7.62,0,13.57,5.43,13.57,12.71s-4.78,13.69-11.41,13.69c-2.23,0-4.33-1.16-5.03-2.54,0,0-1.1,4.2-1.38,5.23-.49,1.92-1.83,4.31-2.73,5.78,2.06,.63,4.24,.98,6.52,.98,12.15,0,22-9.85,22-22,.04-12.19-9.82-22.04-21.97-22.04Z"/></svg>