<?xml version="1.0" encoding="UTF-8"?><svg id="a" xmlns="http://www.w3.org/2000/svg" viewBox="0 0 64 64"><defs><style>.c{fill:#fff;fill-rule:evenodd;}</style></defs><path id="b" class="c" d="M13.02,29.47c11.81-5.15,19.69-8.54,23.63-10.18,11.25-4.68,13.59-5.49,15.11-5.52,.34,0,1.08,.08,1.57,.47,.41,.33,.52,.78,.58,1.1s.12,1.03,.07,1.59c-.61,6.41-3.25,21.95-4.59,29.13-.57,3.04-1.69,4.05-2.77,4.15-2.35,.22-4.14-1.55-6.42-3.05-3.57-2.34-5.58-3.79-9.04-6.07-4-2.64-1.41-4.08,.87-6.45,.6-.62,10.96-10.05,11.16-10.9,.03-.11,.05-.51-.19-.72s-.59-.14-.84-.08c-.36,.08-6.05,3.85-17.09,11.3-1.62,1.11-3.08,1.65-4.39,1.62-1.45-.03-4.23-.82-6.3-1.49-2.54-.82-4.55-1.26-4.38-2.66,.09-.73,1.1-1.48,3.01-2.24Z"/></svg>