<?xml version="1.0" encoding="UTF-8"?><svg id="a" xmlns="http://www.w3.org/2000/svg" viewBox="0 0 64 64"><defs><style>.b{fill:#fff;fill-rule:evenodd;}</style></defs><path class="b" d="M13.09,13.09c-3.09,3.09-3.09,8.07-3.09,18.03v1.76c0,9.96,0,14.93,3.09,18.03,3.09,3.09,8.07,3.09,18.03,3.09h1.76c9.96,0,14.93,0,18.03-3.09s3.09-8.07,3.09-18.03v-1.76c0-9.96,0-14.93-3.09-18.03-3.09-3.09-8.07-3.09-18.03-3.09h-1.76c-9.96,0-14.93,0-18.03,3.09Zm4.33,10.29c.24,11.44,5.96,18.31,15.99,18.31h.57v-6.55c3.69,.37,6.47,3.06,7.59,6.55h5.21c-1.43-5.21-5.19-8.09-7.54-9.19,2.35-1.36,5.65-4.66,6.43-9.13h-4.73c-1.03,3.63-4.07,6.93-6.97,7.24v-7.24h-4.73v12.69c-2.93-.73-6.64-4.29-6.8-12.69h-5.02Z"/></svg>